HIERARCHY
ROOT Hips
{
	OFFSET -3.958830 18.904000 13.208200
	CHANNELS 6 Xposition Yposition Zposition Zrotation Yrotation Xrotation 
	JOINT LHipJoint
	{
		OFFSET 0.000000 0.000000 0.000000
		CHANNELS 3 Zrotation Yrotation Xrotation
		JOINT LeftUpLeg
		{
			OFFSET 1.800000 -1.400000 0.085000
			CHANNELS 3 Zrotation Yrotation Xrotation
			JOINT LeftLeg
			{
				OFFSET 2.215000 -6.000000 0.000000
				CHANNELS 3 Zrotation Yrotation Xrotation
				JOINT LeftFoot
				{
					OFFSET 2.500000 -6.900000 0.000000
					CHANNELS 3 Zrotation Yrotation Xrotation
					JOINT LeftToeBase
					{
						OFFSET 0.200000 -0.500000 1.950000
						CHANNELS 3 Zrotation Yrotation Xrotation
						End Site
						{
							OFFSET 0.000000 0.000000 0.000000
						}
					}
				}
			}
		}
	}
	JOINT RHipJoint
	{
		OFFSET 0.000000 0.000000 0.000000
		CHANNELS 3 Zrotation Yrotation Xrotation
		JOINT RightUpLeg
		{
			OFFSET -1.800000 -1.400000 0.085000
			CHANNELS 3 Zrotation Yrotation Xrotation
			JOINT RightLeg
			{
				OFFSET -2.215000 -6.000000 0.000000
				CHANNELS 3 Zrotation Yrotation Xrotation
				JOINT RightFoot
				{
					OFFSET -2.500000 -6.900000 0.000000
					CHANNELS 3 Zrotation Yrotation Xrotation
					JOINT RightToeBase
					{
						OFFSET -0.200000 -0.500000 1.950000
						CHANNELS 3 Zrotation Yrotation Xrotation
						End Site
						{
							OFFSET 0.000000 0.000000 0.000000
						}
					}
				}
			}
		}
	}
	JOINT LowerBack
	{
		OFFSET 0.000000 0.000000 0.000000
		CHANNELS 3 Zrotation Yrotation Xrotation
		JOINT Spine
		{
			OFFSET -0.087000 1.940000 -0.288900
			CHANNELS 3 Zrotation Yrotation Xrotation
			JOINT Spine1
			{
				OFFSET 0.000000 1.950000 0.060000
				CHANNELS 3 Zrotation Yrotation Xrotation
				JOINT Neck
				{
					OFFSET 0.000000 0.000000 0.000000
					CHANNELS 3 Zrotation Yrotation Xrotation
					JOINT Neck1
					{
						OFFSET 0.000000 1.600000 0.340000
						CHANNELS 3 Zrotation Yrotation Xrotation
						JOINT Head
						{
							OFFSET 0.000000 1.667000 -0.240000
							CHANNELS 3 Zrotation Yrotation Xrotation
							End Site
							{
								OFFSET 0.000000 0.000000 0.000000
							}
						}
					}
				}
				JOINT LeftShoulder
				{
					OFFSET 0.000000 0.000000 0.000000
					CHANNELS 3 Zrotation Yrotation Xrotation
					JOINT LeftArm
					{
						OFFSET 2.700000 1.550000 -0.730000
						CHANNELS 3 Zrotation Yrotation Xrotation
						JOINT LeftForeArm
						{
							OFFSET 5.450000 0.000000 0.000000
							CHANNELS 3 Zrotation Yrotation Xrotation
							JOINT LeftHand
							{
								OFFSET 3.450000 0.000000 0.000000
								CHANNELS 3 Zrotation Yrotation Xrotation
								JOINT LeftHandIndex1
								{
									OFFSET 0.750000 0.000000 0.000000
									CHANNELS 3 Zrotation Yrotation Xrotation
									End Site
									{
										OFFSET 0.000000 0.000000 0.000000
									}
								}
							}
						}
					}
				}
				JOINT RightShoulder
				{
					OFFSET 0.000000 0.000000 0.000000
					CHANNELS 3 Zrotation Yrotation Xrotation
					JOINT RightArm
					{
						OFFSET -2.700000 1.550000 -0.730000
						CHANNELS 3 Zrotation Yrotation Xrotation
						JOINT RightForeArm
						{
							OFFSET -5.450000 0.000000 0.000000
							CHANNELS 3 Zrotation Yrotation Xrotation
							JOINT RightHand
							{
								OFFSET -3.450000 0.000000 0.000000
								CHANNELS 3 Zrotation Yrotation Xrotation
								JOINT RightHandIndex1
								{
									OFFSET -0.750000 0.000000 0.000000
									CHANNELS 3 Zrotation Yrotation Xrotation
									End Site
									{
										OFFSET 0.000000 0.000000 0.000000
									}
								}
							}
						}
					}
				}
			}
		}
	}
}
MOTION
Frames: 4
Frame Time: 0.016667
-1.344490 16.672890 -0.632070 -9.407875 -23.449446 3.662070 -15.508406 11.688620 3.925980 9.772666 -5.069463 -36.310450 -13.344458 10.855477 28.122058 -0.489799 6.538044 2.259030 0.180650 -0.052960 -0.037590 18.288502 -8.493416 4.205634 -5.948779 12.024523 -31.865921 22.824732 -25.225676 60.148369 -2.104247 -12.143082 0.613664 0.095200 0.621450 0.053050 -3.268170 -2.950234 -8.545787 2.006893 0.151947 19.398016 -2.628952 2.036014 8.685294 -1.106822 -10.138227 -7.374579 -25.183158 14.206003 37.864173 -0.850660 4.967370 -5.175900 -14.046679 10.176813 2.414358 -54.065591 4.625385 -9.255449 -164.612683 -71.023682 144.365057 -3.708490 3.182312 0.523450 0.294230 -0.286910 0.185760 15.465875 -1.653877 1.227171 44.044403 -0.433427 -11.896604 35.722030 51.040386 12.618634 1.836957 -1.559132 -0.442560 0.507450 0.231000 -0.146040 
-1.357370 16.646470 -0.623670 -9.480076 -23.364300 3.014228 -15.513285 11.663275 3.938105 9.935308 -5.161123 -36.462596 -13.020515 11.268242 29.796240 -0.454126 6.793776 2.168051 0.174390 -0.051460 -0.049140 18.288296 -8.408009 4.296139 -6.746888 12.244044 -32.694161 23.337971 -26.329763 61.481956 -2.208243 -12.487767 0.537395 0.092700 0.615220 0.025420 -3.268968 -3.007010 -8.644701 1.787844 -0.037994 20.803068 -2.895972 1.846457 8.011468 -1.081445 -10.399074 -7.519712 -26.024753 14.344082 37.915147 -0.479250 4.472750 -6.018470 -14.218430 10.093783 2.299117 -53.794497 4.727158 -9.603841 -162.601250 -71.328129 141.803652 -3.689454 3.119012 0.550140 0.269030 -0.276800 0.186960 15.611161 -1.400675 1.355496 44.145928 -0.492603 -12.036936 35.822074 51.647711 12.879632 1.839522 -1.524389 -0.456170 0.539560 0.234810 -0.144840 
-1.386750 16.587980 -0.612120 -9.735317 -23.306616 1.483045 -15.562200 11.641219 3.973456 10.530143 -5.241097 -36.699716 -12.497978 12.270643 33.370365 -0.286245 7.370839 1.956538 0.217790 0.008160 -0.027970 18.250391 -8.195266 4.466098 -8.282850 12.668712 -34.135333 24.530085 -28.557339 63.876517 -2.438841 -13.139462 0.389881 0.087020 0.558510 0.013510 -3.150066 -3.225744 -8.859370 0.635196 0.157342 23.926756 -2.450947 1.895539 6.832342 -0.938305 -10.414562 -7.873839 -26.607816 14.267357 38.832370 0.747070 3.630120 -7.361580 -15.210833 9.228842 2.120273 -53.152674 4.690033 -10.450631 -158.547652 -72.053232 136.830333 -3.616965 3.059720 0.578260 0.202000 -0.217210 0.209000 16.434204 -0.325643 1.903930 43.349736 -1.533037 -12.691326 36.570218 53.920904 13.840014 1.869694 -1.529259 -0.412700 0.533110 0.185690 -0.125330 
-1.416560 16.525070 -0.601100 -10.103766 -23.121799 -0.495422 -15.606822 11.609090 4.038965 11.641022 -5.272414 -36.840928 -12.208252 13.549456 37.355057 -0.109847 8.130274 1.681181 0.280470 0.073700 0.030580 18.220756 -7.982517 4.595266 -9.694184 13.014712 -35.413087 25.236915 -30.391065 66.032184 -2.654013 -13.652776 0.265519 0.087810 0.478760 0.011340 -3.055759 -3.433301 -9.064829 -0.473703 0.208171 28.017215 -2.294745 1.769499 5.212071 -0.652128 -10.469698 -8.022985 -27.138725 14.348927 39.589994 1.582570 3.113490 -10.244560 -16.739297 8.389411 1.661185 -52.645093 4.478056 -11.673680 -153.336354 -73.625152 131.291656 -3.532399 2.946802 0.644940 0.114430 -0.132340 0.223210 17.476162 0.674316 2.326470 42.730049 -2.081233 -13.229968 36.927171 56.275431 14.771022 1.898674 -1.516788 -0.376720 0.532200 0.133420 -0.124720 
